# xmcd CD database file
#
# Track frame offsets:
#       150
#       21026
#       38168
#       53436
#       71484
#       84287
#       104132
#       125342
#       137962
#       154301
#       169092
#       185490
#       201757
#       217307
#       230647
#       250851
#       265198
#       277645
#       297047
#       314306
#
# Disc length: 4388 seconds
#
# Revision: 0
# Processed by: cddbd v1.5.2PL0 Copyright (c) Steve Scherf et al.
# Submitted via: jack 3.1.1
#
DISCID=22112214
DTITLE=Mikel Knight - Urban Cowboy
DYEAR=2014
DGENRE=country
TTITLE0=Cowboy Way
TTITLE1=Bring It On
TTITLE2=Last Night In Texas
TTITLE3=We Don't Give a Truck
TTITLE4=Raisin a Lil Hell Feat. Koolwhip
TTITLE5=Rock Star Outlaw
TTITLE6=It Didn't Come Like That
TTITLE7=Women Over Whiskey
TTITLE8=The Lights Come One
TTITLE9=Take Off (Shine)
TTITLE10=Till The Morning
TTITLE11=I Believe
TTITLE12=Walk Alone
TTITLE13=Fly Away
TTITLE14=Roses and Mayhem
TTITLE15=Cold as the Lie
TTITLE16=Country Countdown
TTITLE17=Revel Flag Bikini Queen
TTITLE18=Country Girl Shuffle
TTITLE19=Last Night in Texas (Remix)
EXTD=Produced by: Mikel Knight, Kevin "DJ Dev" Grisham, Brian Mitchell J.
EXTT0=
EXTT1=
EXTT2=
EXTT3=
EXTT4=
EXTT5=
EXTT6=
EXTT7=
EXTT8=
EXTT9=
EXTT10=
EXTT11=
EXTT12=
EXTT13=
EXTT14=
EXTT15=
EXTT16=
EXTT17=
EXTT18=
EXTT19=
PLAYORDER=
